<?xml version="1.0" ?>
<!DOCTYPE svg  PUBLIC '-//W3C//DTD SVG 1.1//EN'  'http://www.w3.org/Graphics/SVG/1.1/DTD/svg11.dtd'>
<!-- Uploaded to: SVG Repo, www.svgrepo.com, Generator: SVG Repo Mixer Tools -->
<svg fill="#000000" width="800px" height="800px" viewBox="0 0 64 64" style="fill-rule:evenodd;clip-rule:evenodd;stroke-linejoin:round;stroke-miterlimit:2;" version="1.1" xml:space="preserve" xmlns="http://www.w3.org/2000/svg" xmlns:serif="http://www.serif.com/" xmlns:xlink="http://www.w3.org/1999/xlink">
<g id="Expanded">
<path d="M15.268,16.979c-0.519,-0.304 -1.123,-0.479 -1.768,-0.479c-1.584,0 -2.924,1.055 -3.355,2.5l-2.145,0c-0.552,0 -1,0.448 -1,1l0,13.145c-1.445,0.431 -2.5,1.771 -2.5,3.355c0,0.614 0.159,1.192 0.437,1.694c-1.132,0.429 -1.937,1.523 -1.937,2.806c0,3.921 0,12.579 0,16.5c0,1.657 1.343,3 3,3l52,0c1.657,-0 3,-1.343 3,-3c0,-3.921 0,-12.579 -0,-16.5c-0,-1.283 -0.805,-2.377 -1.937,-2.806c0.278,-0.502 0.437,-1.08 0.437,-1.694c0,-1.584 -1.055,-2.924 -2.5,-3.355l-0,-13.145c-0,-0.552 -0.448,-1 -1,-1l-2.145,0c-0.431,-1.445 -1.771,-2.5 -3.355,-2.5c-0.645,0 -1.249,0.175 -1.768,0.479c-1.428,-7.944 -8.381,-13.979 -16.732,-13.979c-8.351,0 -15.304,6.035 -16.732,13.979Zm15.732,26.146l0,12.25c0,0.552 0.448,1 1,1c0.552,-0 1,-0.448 1,-1l0,-12.25c0,-0.552 -0.448,-1 -1,-1c-0.552,-0 -1,0.448 -1,1Zm5,1.75l0,8.75c0,0.552 0.448,1 1,1c0.552,-0 1,-0.448 1,-1l0,-8.75c0,-0.552 -0.448,-1 -1,-1c-0.552,-0 -1,0.448 -1,1Zm-10,0l-0,8.75c-0,0.552 0.448,1 1,1c0.552,0 1,-0.448 1,-1l-0,-8.75c-0,-0.552 -0.448,-1 -1,-1c-0.552,0 -1,0.448 -1,1Zm15,0.875l0,7c0,0.552 0.448,1 1,1c0.552,-0 1,-0.448 1,-1l0,-7c0,-0.552 -0.448,-1 -1,-1c-0.552,-0 -1,0.448 -1,1Zm-20,0l0,7c-0,0.552 0.448,1 1,1c0.552,0 1,-0.448 1,-1l0,-7c-0,-0.552 -0.448,-1 -1,-1c-0.552,0 -1,0.448 -1,1Zm-14,0.75l0,5.5c0,0.552 0.448,1 1,1c0.552,-0 1,-0.448 1,-1l0,-5.5c0,-0.552 -0.448,-1 -1,-1c-0.552,-0 -1,0.448 -1,1Zm48,0l0,5.5c-0,0.552 0.448,1 1,1c0.552,0 1,-0.448 1,-1l0,-5.5c-0,-0.552 -0.448,-1 -1,-1c-0.552,0 -1,0.448 -1,1Zm-39,0.563l-0,4.375c-0,0.551 0.448,0.999 1,0.999c0.552,0.001 1,-0.448 1,-0.999l-0,-4.375c-0,-0.552 -0.448,-1.001 -1,-1.001c-0.552,0.001 -1,0.449 -1,1.001Zm30,-0.001l0,4.376c0,0.551 0.448,1 1,0.999c0.552,0 1,-0.448 1,-1l0,-4.374c0,-0.552 -0.448,-1 -1,-1.001c-0.552,0 -1,0.449 -1,1Zm5,1.313l0,1.75c0,0.552 0.448,1 1,1c0.552,-0 1,-0.448 1,-1l0,-1.75c0,-0.552 -0.448,-1 -1,-1c-0.552,-0 -1,0.448 -1,1Zm-40,0l0,1.75c-0,0.552 0.448,1 1,1c0.552,0 1,-0.448 1,-1l0,-1.75c-0,-0.552 -0.448,-1 -1,-1c-0.552,0 -1,0.448 -1,1Zm-2,-15.23c1.445,0.431 2.5,1.771 2.5,3.355c0,0.537 -0.121,1.045 -0.337,1.5l41.674,0c-0.216,-0.455 -0.337,-0.963 -0.337,-1.5c0,-1.584 1.055,-2.924 2.5,-3.355l0,-12.145l-1.145,0c-0.431,1.445 -1.771,2.5 -3.355,2.5c-0.645,-0 -1.249,-0.175 -1.768,-0.479c-1.428,7.944 -8.381,13.979 -16.732,13.979c-8.351,-0 -15.304,-6.035 -16.732,-13.979c-0.519,0.304 -1.123,0.479 -1.768,0.479c-1.584,-0 -2.924,-1.055 -3.355,-2.5c-0.543,-0 -1.145,-0 -1.145,-0l0,12.145Zm-1,1.855c0.828,-0 1.5,0.672 1.5,1.5c0,0.828 -0.672,1.5 -1.5,1.5c-0.828,-0 -1.5,-0.672 -1.5,-1.5c0,-0.828 0.672,-1.5 1.5,-1.5Zm48,-0c0.828,-0 1.5,0.672 1.5,1.5c0,0.828 -0.672,1.5 -1.5,1.5c-0.828,-0 -1.5,-0.672 -1.5,-1.5c0,-0.828 0.672,-1.5 1.5,-1.5Zm-25,-7.433l0,2.433l-2,-0c-0.552,0 -1,0.448 -1,1c0,0.552 0.448,1 1,1l6,-0c0.552,0 1,-0.448 1,-1c0,-0.552 -0.448,-1 -1,-1l-2,-0l0,-2.433c4.221,-0.496 7.5,-4.089 7.5,-8.442c0,-0.552 -0.448,-1 -1,-1c-0.552,0 -1,0.448 -1,1c0,3.587 -2.913,6.5 -6.5,6.5c-3.587,0 -6.5,-2.913 -6.5,-6.5c0,-0.552 -0.448,-1 -1,-1c-0.552,0 -1,0.448 -1,1c0,4.353 3.279,7.946 7.5,8.442Zm-4,-8.192c0,2.76 2.24,5 5,5c2.76,0 5,-2.24 5,-5l0,-9.375c0,-0.552 -0.448,-1 -1,-1l-8,-0c-0.552,-0 -1,0.448 -1,1l0,9.375Zm8,-3l0,3c0,1.656 -1.344,3 -3,3c-1.656,0 -3,-1.344 -3,-3l0,-3l6,0Zm-21.5,2.125c0.828,-0 1.5,0.672 1.5,1.5c0,0.828 -0.672,1.5 -1.5,1.5c-0.828,-0 -1.5,-0.672 -1.5,-1.5c0,-0.828 0.672,-1.5 1.5,-1.5Zm37,-0c0.828,-0 1.5,0.672 1.5,1.5c0,0.828 -0.672,1.5 -1.5,1.5c-0.828,-0 -1.5,-0.672 -1.5,-1.5c0,-0.828 0.672,-1.5 1.5,-1.5Zm-15.5,-4.125l-6,0l0,-3.375c-0,0 6,-0 6,-0l-0,3.375Z"/>
</g>
</svg>