<?xml version="1.0" encoding="utf-8" standalone="no"?>
<!DOCTYPE svg PUBLIC "-//W3C//DTD SVG 1.1//EN"
  "http://www.w3.org/Graphics/SVG/1.1/DTD/svg11.dtd">
<!-- Created with matplotlib (http://matplotlib.org/) -->
<svg height="432pt" version="1.1" viewBox="0 0 576 432" width="576pt" xmlns="http://www.w3.org/2000/svg" xmlns:xlink="http://www.w3.org/1999/xlink">
 <defs>
  <style type="text/css">
*{stroke-linecap:square;stroke-linejoin:round;}
  </style>
 </defs>
 <g id="figure_1">
  <g id="patch_1">
   <path d="
M0 432
L576 432
L576 0
L0 0
z
" style="fill:#ffffff;"/>
  </g>
  <g id="axes_1">
   <g id="patch_2">
    <path d="
M72 388.8
L518.4 388.8
L518.4 43.2
L72 43.2
z
" style="fill:#ffffff;"/>
   </g>
   <g id="line2d_1">
    <path clip-path="url(#p7ff5b81e1d)" d="
M72 163.547
L72.4464 185.652
L72.8928 195.755
L73.3392 100.284
L73.7856 220.245
L74.232 232.437
L74.6784 220.156
L75.1248 373.008
L75.5712 187.504
L76.0176 272.424
L76.464 210.188
L76.9104 279.632
L77.3568 156.355
L78.2496 282.77
L78.696 163.704
L79.1424 192.282
L79.5888 168.093
L80.4816 240.436
L80.928 279.314
L81.3744 234.234
L81.8208 146.393
L82.2672 251.789
L82.7136 209.366
L83.16 222.164
L83.6064 248.8
L84.0528 163.584
L84.4992 165.413
L84.9456 242.073
L85.392 199.335
L85.8384 232.942
L86.2848 184.556
L86.7312 180.866
L87.1776 195.906
L87.624 234.301
L88.0704 157.647
L88.5168 243.274
L88.9632 171.975
L89.4096 209.494
L89.856 157.971
L90.3024 162.219
L90.7488 205.803
L91.1952 132.831
L91.6416 245.334
L92.088 168.469
L92.5344 192.078
L92.9808 242.426
L93.4272 246.069
L93.8736 186.113
L94.32 203.188
L94.7664 258.147
L95.2128 183.338
L95.6592 265.182
L96.1056 254.745
L96.552 214.169
L96.9984 220.15
L97.4448 179.512
L97.8912 176.152
L98.3376 204.275
L98.784 129.709
L99.2304 178.826
L99.6768 257.293
L100.123 225.826
L100.57 254.27
L101.016 223.932
L101.462 249.787
L101.909 220.786
L102.355 179.916
L102.802 151.273
L103.248 215.655
L103.694 96.8759
L104.141 280.57
L104.587 339.423
L105.034 279.063
L105.48 240.595
L105.926 222.676
L106.373 219.496
L106.819 222.761
L107.266 251.793
L107.712 213.622
L108.158 135.735
L108.605 172.405
L109.051 267.914
L109.498 228.309
L109.944 217.406
L110.39 253.498
L110.837 255.876
L111.283 211.254
L111.73 187.574
L112.176 193.664
L112.622 231.626
L113.069 260.017
L113.515 257.905
L113.962 266.271
L114.854 227.078
L115.301 232.297
L115.747 211.684
L116.194 276.579
L116.64 245.277
L117.086 189.385
L117.533 216.224
L117.979 184.869
L118.426 239.589
L118.872 240.066
L119.318 220.309
L119.765 238.367
L120.211 249.583
L120.658 168.125
L121.104 216.357
L121.55 248.923
L121.997 225.165
L122.443 291.77
L122.89 219.788
L123.336 221.566
L123.782 246.287
L124.229 243.628
L124.675 255.257
L125.122 212.902
L125.568 290.809
L126.014 204.098
L126.907 226.508
L127.354 231.032
L127.8 198.769
L128.246 211.72
L128.693 252.584
L129.139 265.441
L129.586 187.304
L130.032 281.244
L130.478 251.374
L130.925 143.467
L131.371 219.65
L131.818 118.032
L132.264 267.542
L132.71 223.272
L133.157 293.668
L133.603 245.742
L134.05 133.948
L134.496 315.534
L134.942 172.851
L135.389 152.059
L135.835 180.158
L136.282 271.843
L136.728 200.403
L137.174 282.904
L137.621 160.121
L138.067 160.046
L138.514 285.347
L138.96 233.003
L139.406 241.94
L139.853 319.177
L140.299 195.207
L140.746 250.053
L141.192 169.706
L141.638 261.671
L142.085 241.666
L142.531 152.389
L142.978 168.823
L143.424 235.423
L143.87 172.147
L144.317 168.534
L144.763 222.97
L145.21 129.705
L145.656 227.013
L146.102 257.187
L146.549 256.333
L146.995 190.951
L147.442 262.382
L147.888 238.206
L148.334 195.245
L148.781 196.788
L149.227 177.739
L149.674 199.946
L150.12 245.75
L150.566 166.282
L151.013 199.194
L151.459 320.013
L151.906 270.946
L152.352 238.802
L152.798 194.873
L153.245 299.359
L153.691 169.427
L154.138 235.982
L154.584 205.548
L155.03 382.058
L155.477 210.754
L155.923 235.655
L156.37 189.309
L156.816 218.811
L157.262 217.037
L158.155 198.35
L158.602 175.919
L159.048 239.908
L159.494 219.686
L159.941 258.251
L160.387 167.106
L160.834 263.663
L161.28 265.112
L161.726 138.079
L162.173 176.814
L162.619 306.515
L163.066 165.653
L163.512 172.387
L163.958 285.356
L164.405 224.469
L164.851 189.054
L165.298 188.754
L165.744 270.207
L166.637 154.955
L167.083 146.186
L167.53 164.634
L167.976 173.319
L168.422 210.9
L168.869 206.482
L169.315 250.181
L169.762 200.968
L170.208 249.865
L170.654 284.634
L171.101 201.284
L171.547 191.263
L171.994 159.41
L172.44 182.963
L172.886 128.563
L173.333 210.202
L173.779 267.265
L174.226 205.75
L174.672 186.891
L175.118 193.497
L175.565 208.967
L176.011 230.019
L176.458 267.052
L176.904 245.622
L177.35 193.933
L177.797 193.759
L178.243 230.638
L178.69 177.091
L179.136 240.657
L179.582 221.74
L180.029 231.111
L180.475 236.411
L180.922 207.375
L181.368 160.572
L181.814 226.397
L182.261 216.793
L182.707 175.264
L183.154 172.076
L183.6 175.983
L184.046 162.331
L184.493 201.871
L184.939 207.399
L185.386 236.885
L186.278 261.09
L186.725 240.877
L187.171 188.667
L187.618 241.67
L188.064 199.503
L188.51 169.391
L188.957 255.747
L189.403 214.243
L189.85 202.387
L190.296 259.907
L190.742 211.697
L191.189 124.08
L191.635 274.004
L192.528 199.342
L192.974 193.353
L193.421 174.999
L193.867 262.953
L194.314 290.478
L194.76 177.771
L195.206 296.224
L195.653 217.107
L196.099 238.279
L196.546 189.955
L196.992 188.079
L197.885 242.809
L198.778 214.506
L199.224 154.245
L199.67 251.603
L200.117 261.982
L200.563 205.481
L201.456 250.676
L201.902 212.639
L202.349 116.053
L202.795 246.087
L203.242 213.283
L203.688 274.605
L204.134 250.722
L204.581 184.043
L205.027 280.965
L205.92 249.896
L206.366 266.692
L206.813 210.534
L207.259 244.138
L207.706 210.865
L208.152 150.425
L208.598 161.743
L209.045 177.038
L209.491 185.251
L209.938 187.149
L210.384 255.482
L210.83 200.503
L211.277 251.227
L211.723 134.465
L212.17 288.338
L212.616 253.219
L213.062 258.915
L213.509 176.895
L213.955 156.126
L214.402 230.625
L214.848 190.457
L215.741 217.68
L216.187 246.698
L216.634 210.691
L217.08 299.075
L217.526 229.204
L217.973 221.696
L218.419 250.426
L218.866 157
L219.312 205.84
L219.758 225.359
L220.205 254.456
L220.651 221.188
L221.098 258.402
L221.544 231.731
L221.99 212.24
L222.437 260.876
L222.883 209.595
L223.33 267.893
L223.776 167.476
L224.222 211.266
L224.669 269.884
L225.115 192.946
L225.562 243.513
L226.008 216.402
L226.454 204.601
L226.901 178.412
L227.347 213.459
L227.794 153.867
L228.24 220.387
L228.686 243.195
L229.133 208.075
L229.579 239.654
L230.026 143.6
L230.472 159.073
L230.918 160.041
L231.365 184.318
L231.811 267.112
L232.258 212.675
L232.704 222.166
L233.15 222.025
L233.597 269.291
L234.043 265.417
L234.49 198.421
L234.936 268.007
L235.382 268.673
L236.275 211.674
L236.722 317.833
L237.168 167.212
L237.614 202.238
L238.061 221.411
L238.507 196.212
L238.954 213.192
L239.4 174.787
L239.846 104.434
L240.293 165.093
L240.739 113.461
L241.186 239.221
L241.632 229.441
L242.078 274.783
L242.971 193.227
L243.418 235.864
L243.864 301.993
L244.31 196.343
L244.757 274.976
L245.203 190.509
L245.65 202.531
L246.096 238.296
L246.542 191.415
L246.989 250.216
L247.435 276.903
L247.882 254.146
L248.328 219.757
L248.774 173.575
L249.221 240.962
L249.667 201.069
L250.114 226.438
L250.56 273.906
L251.006 229.993
L251.453 204.395
L251.899 235.774
L252.346 174.936
L252.792 274.244
L253.238 163.414
L254.131 224.424
L254.578 231.64
L255.024 261.982
L255.47 204.466
L255.917 167.116
L256.363 267.923
L256.81 264.648
L257.256 238.858
L257.702 198.642
L258.149 202.368
L258.595 185.413
L259.042 157.914
L259.488 209.33
L259.934 146.814
L260.381 237.255
L260.827 193.421
L261.274 260.133
L261.72 141.271
L262.166 172.171
L262.613 185.486
L263.059 193.126
L263.506 267.29
L263.952 290.104
L264.845 233.945
L265.291 189.202
L265.738 181.873
L266.184 227.782
L266.63 241.904
L267.077 245.307
L267.523 253.273
L267.97 163.61
L268.416 255.49
L268.862 151.611
L269.309 291.389
L269.755 262.117
L270.202 282.047
L270.648 183.647
L271.094 187.629
L271.987 295.91
L272.434 265.92
L272.88 120.083
L273.326 163.137
L273.773 182.496
L274.219 249.382
L274.666 246.529
L275.112 235.424
L275.558 157.631
L276.005 190.683
L276.451 179.975
L277.344 264.847
L277.79 270.761
L278.237 241.613
L278.683 194.136
L279.13 260.881
L279.576 268.78
L280.022 205.31
L280.469 218.238
L280.915 150.944
L281.362 148.987
L281.808 308.003
L282.254 135.279
L282.701 206.456
L283.147 177.055
L283.594 239.602
L284.04 250.071
L284.486 270.415
L284.933 260.365
L285.379 203.915
L285.826 214.252
L286.272 244.414
L286.718 198.567
L287.165 132.539
L287.611 130.76
L288.058 214.042
L288.504 90.8507
L288.95 206.33
L289.397 121.471
L289.843 104.4
L290.29 269.479
L290.736 205.296
L291.182 253.598
L291.629 180.279
L292.075 214.542
L292.522 125.871
L292.968 175.071
L293.861 220.503
L294.307 276.729
L294.754 206.263
L295.2 159.809
L295.646 285.303
L296.093 210.702
L296.539 201.601
L296.986 260.251
L297.432 209.957
L297.878 196.31
L298.325 176.527
L298.771 188.718
L299.218 149.355
L299.664 230.545
L300.11 236.096
L300.557 173.728
L301.003 218.211
L301.45 226.834
L301.896 154.984
L302.342 216.925
L302.789 201.461
L303.235 277.31
L303.682 221.887
L304.128 202.364
L304.574 212.562
L305.021 161.24
L305.467 253.792
L305.914 140.202
L306.36 254.512
L306.806 280.765
L307.253 164.293
L307.699 220.848
L308.146 165.702
L308.592 228.772
L309.038 254.409
L309.485 182.003
L309.931 236.786
L310.378 169.24
L310.824 168.943
L311.27 130.045
L311.717 168.646
L312.61 298.299
L313.502 238.713
L314.395 148.837
L314.842 219.694
L315.288 240.447
L315.734 224.871
L316.181 149.538
L316.627 200.871
L317.074 137.206
L317.52 246.456
L317.966 197.861
L318.413 165.147
L318.859 250.63
L319.306 203.077
L319.752 193.605
L320.198 266.067
L320.645 235.56
L321.091 225.564
L321.538 160.131
L321.984 249.307
L322.43 186.603
L322.877 181.199
L323.323 255.461
L323.77 216.411
L324.216 203.643
L324.662 268.829
L325.109 169.058
L325.555 231.675
L326.002 186.464
L326.448 248.959
L326.894 273.384
L327.341 187.478
L327.787 224.612
L328.234 237.615
L328.68 193.881
L329.126 236.77
L329.573 159.208
L330.019 254.62
L330.466 261.97
L330.912 224.541
L331.358 153.946
L331.805 207.113
L332.251 275.959
L332.698 201.739
L333.144 196.61
L333.59 262.151
L334.037 175.38
L334.483 248.257
L334.93 257.362
L335.376 177.888
L335.822 138.429
L336.269 309.209
L337.162 167.365
L337.608 274.22
L338.054 189.13
L338.501 230.677
L338.947 224.174
L339.394 214.91
L339.84 297.91
L340.286 208.752
L340.733 179.475
L341.179 180.096
L341.626 264.396
L342.072 240.964
L342.965 173.942
L343.411 225.172
L343.858 205.438
L344.304 225.073
L344.75 203.374
L345.197 149.432
L345.643 229.545
L346.09 121.306
L346.536 177.517
L346.982 177.348
L347.429 245.379
L347.875 206.549
L348.322 235.41
L349.214 185.462
L349.661 189.638
L350.107 195.832
L351 256.401
L351.446 258.342
L351.893 174.377
L352.339 226.258
L352.786 265.13
L353.232 258.065
L353.678 217.349
L354.125 160.44
L354.571 312.535
L355.018 209.82
L355.464 171.083
L355.91 230.059
L356.803 257.297
L357.25 299.607
L357.696 196.482
L358.142 223.401
L358.589 221.595
L359.035 209.74
L359.482 223.754
L359.928 262.881
L360.374 172.374
L360.821 167.742
L361.267 180.696
L361.714 297.725
L362.16 159.056
L362.606 227.163
L363.053 237.477
L363.499 251.279
L363.946 185.866
L364.392 291.351
L364.838 188.805
L365.285 193.607
L365.731 218.645
L366.178 274.582
L366.624 193.376
L367.07 198.997
L367.517 197.929
L367.963 255.079
L368.41 247.522
L368.856 175.212
L369.302 273.601
L369.749 279.385
L370.195 130.599
L370.642 198.734
L371.088 223.976
L371.534 187.594
L372.427 234.409
L372.874 233.218
L373.32 218.139
L373.766 176.68
L374.213 225.421
L374.659 246.645
L375.106 260.866
L375.552 229.08
L375.998 154.929
L376.445 296.91
L376.891 241.857
L377.784 285.206
L378.23 166.187
L378.677 239.337
L379.123 293.676
L379.57 215.444
L380.016 227.044
L380.462 223.073
L380.909 330.688
L381.355 180.589
L381.802 157.281
L382.248 243.425
L382.694 205.874
L383.141 264.374
L383.587 250.803
L384.034 231.626
L384.48 266.268
L384.926 207.458
L385.373 253.654
L385.819 249.376
L386.266 209.551
L386.712 220.647
L387.158 199.97
L388.051 248.374
L388.498 227.629
L388.944 194.418
L389.39 151.428
L389.837 221.066
L390.283 234.273
L390.73 232.11
L391.176 230.667
L391.622 219.516
L392.069 234.016
L392.515 209.926
L392.962 208.005
L393.408 171.55
L393.854 262.563
L394.301 171.79
L394.747 213.108
L395.194 149.39
L395.64 215.997
L396.086 169.006
L396.533 229.364
L396.979 199.445
L397.426 253.199
L397.872 242.999
L398.318 200.492
L398.765 255.717
L399.211 267.287
L399.658 229.446
L400.104 164.918
L400.55 192.482
L400.997 243.795
L401.443 210.094
L401.89 195.604
L402.336 294.315
L402.782 194.696
L403.229 240.93
L403.675 178.57
L404.122 209.593
L404.568 135.531
L405.014 299.944
L405.461 313.587
L405.907 316.111
L406.354 223.21
L406.8 253.444
L407.246 236.552
L407.693 175.854
L408.139 222.071
L408.586 207.311
L409.032 243.376
L409.478 170.788
L409.925 229.986
L410.371 250.744
L410.818 214.124
L411.264 272.108
L411.71 252.735
L412.157 192.034
L412.603 192.108
L413.05 203.627
L413.496 209.369
L413.942 316.596
L414.389 142.066
L414.835 128.971
L415.282 178.755
L415.728 211.459
L416.174 274.381
L417.067 132.361
L417.514 262.568
L417.96 187.537
L418.406 261.79
L418.853 186.21
L419.299 158.928
L419.746 258.462
L420.192 230.966
L420.638 227.626
L421.085 158.617
L421.978 214.158
L422.424 183.962
L422.87 226.897
L423.317 180.448
L423.763 244.611
L424.21 210.746
L424.656 226.171
L425.102 180.405
L425.549 184.734
L425.995 267.52
L426.888 152.099
L427.781 227.037
L428.227 218.345
L428.674 322.735
L429.12 199.063
L429.566 183.204
L430.013 243.076
L430.906 258.434
L431.352 169.091
L431.798 150.735
L432.691 300.111
L433.138 189.9
L433.584 178.353
L434.477 212.954
L434.923 118.241
L435.37 183.265
L435.816 175.399
L436.262 196.892
L436.709 238.164
L437.155 231.189
L437.602 233.489
L438.048 321.292
L438.494 123.336
L438.941 231.072
L439.387 146.459
L439.834 279.084
L440.28 180.844
L440.726 216.586
L441.173 169.133
L442.066 252.562
L442.512 321.88
L442.958 211.556
L443.405 198.054
L443.851 236.051
L444.298 185.938
L444.744 262.327
L445.19 163.192
L445.637 196.067
L446.083 218.025
L446.53 124.691
L446.976 212.133
L447.422 238.201
L447.869 164.544
L448.315 206.927
L448.762 156.274
L449.208 225.768
L449.654 120.983
L450.101 316.846
L450.994 209.911
L451.44 194.039
L451.886 202.743
L452.333 244.671
L452.779 222.965
L453.226 211.552
L453.672 161.538
L454.118 232.909
L454.565 211.209
L455.011 270.22
L455.458 136.273
L455.904 135.383
L456.797 191.663
L457.243 179.987
L457.69 229.4
L458.136 232.316
L458.582 200.187
L459.029 212.414
L459.475 179.324
L459.922 268.193
L460.368 195.174
L460.814 258.208
L461.261 179.384
L461.707 155.065
L462.154 186.12
L462.6 185.766
L463.046 201.824
L463.493 199.902
L463.939 265.03
L464.386 198.921
L464.832 258.051
L465.278 131.192
L465.725 301.68
L466.171 165.588
L466.618 242.697
L467.064 158.618
L468.403 262.707
L468.85 176.882
L469.296 207.08
L469.742 192.292
L470.189 210.022
L470.635 266.692
L471.082 196.211
L471.528 207.738
L471.974 291.208
L472.421 259.237
L472.867 238.038
L473.76 178.738
L474.206 266.567
L474.653 252.549
L475.099 194.493
L475.546 196.592
L475.992 146.024
L476.438 251.679
L476.885 222.455
L477.331 264.01
L477.778 256.314
L478.224 181.33
L478.67 252.927
L479.117 154.167
L479.563 248.906
L480.01 173.703
L480.456 282.99
L480.902 177.71
L481.349 237.245
L482.242 187.844
L482.688 135.82
L483.134 231.311
L483.581 185.453
L484.027 195.4
L484.474 260.93
L484.92 267.263
L485.366 140.485
L485.813 218.689
L486.706 186.302
L487.152 208.544
L487.598 217.843
L488.045 255.276
L488.491 235.367
L488.938 222.125
L489.384 232.75
L489.83 233.682
L490.723 182.205
L491.17 230.168
L491.616 169.586
L492.062 268.856
L492.509 251.787
L492.955 274.857
L493.402 288.252
L493.848 118.934
L494.294 179.887
L494.741 180.749
L495.187 160.904
L495.634 223.851
L496.08 204.721
L496.526 258.904
L496.973 231.048
L497.419 153.876
L497.866 165.479
L498.312 181.751
L498.758 241.087
L499.205 211.245
L499.651 324.219
L500.098 246.889
L500.544 189.182
L500.99 206.784
L501.437 178.533
L501.883 189.235
L502.33 192.874
L502.776 170.757
L503.222 228.63
L503.669 244.327
L504.115 249.259
L504.562 154.105
L505.008 143.73
L505.454 231.117
L506.347 195.618
L506.794 168.808
L507.686 231.127
L508.133 232.569
L508.579 169.554
L509.472 230.794
L509.918 217.299
L510.365 185.789
L510.811 259.912
L511.704 309.204
L512.15 270.374
L512.597 262.323
L513.043 224.645
L513.49 156.177
L513.936 133.852
L514.382 212.042
L514.829 350.417
L515.275 195.174
L515.722 177.957
L516.168 241.613
L516.614 198.074
L517.061 217.619
L517.507 204.944
L517.954 203.655
L518.4 246.493
L518.4 246.493" style="fill:none;stroke:#0000ff;stroke-width:0.5;"/>
   </g>
   <g id="matplotlib.axis_1">
    <g id="xtick_1">
     <g id="line2d_2">
      <defs>
       <path d="
M0 0
L0 -4" id="mcb557df647" style="stroke:#000000;stroke-linecap:butt;stroke-width:0.5;"/>
      </defs>
      <g>
       <use style="stroke:#000000;stroke-linecap:butt;stroke-width:0.5;" x="72.0" xlink:href="#mcb557df647" y="388.8"/>
      </g>
     </g>
     <g id="line2d_3">
      <defs>
       <path d="
M0 0
L0 4" id="mdad270ee8e" style="stroke:#000000;stroke-linecap:butt;stroke-width:0.5;"/>
      </defs>
      <g>
       <use style="stroke:#000000;stroke-linecap:butt;stroke-width:0.5;" x="72.0" xlink:href="#mdad270ee8e" y="43.2"/>
      </g>
     </g>
     <g id="text_1">
      <!-- 0 -->
      <defs>
       <path d="
M31.7812 66.4062
Q24.1719 66.4062 20.3281 58.9062
Q16.5 51.4219 16.5 36.375
Q16.5 21.3906 20.3281 13.8906
Q24.1719 6.39062 31.7812 6.39062
Q39.4531 6.39062 43.2812 13.8906
Q47.125 21.3906 47.125 36.375
Q47.125 51.4219 43.2812 58.9062
Q39.4531 66.4062 31.7812 66.4062
M31.7812 74.2188
Q44.0469 74.2188 50.5156 64.5156
Q56.9844 54.8281 56.9844 36.375
Q56.9844 17.9688 50.5156 8.26562
Q44.0469 -1.42188 31.7812 -1.42188
Q19.5312 -1.42188 13.0625 8.26562
Q6.59375 17.9688 6.59375 36.375
Q6.59375 54.8281 13.0625 64.5156
Q19.5312 74.2188 31.7812 74.2188" id="BitstreamVeraSans-Roman-30"/>
      </defs>
      <g transform="translate(68.9765625 401.70625)scale(0.12 -0.12)">
       <use xlink:href="#BitstreamVeraSans-Roman-30"/>
      </g>
     </g>
    </g>
    <g id="xtick_2">
     <g id="line2d_4">
      <g>
       <use style="stroke:#000000;stroke-linecap:butt;stroke-width:0.5;" x="161.28" xlink:href="#mcb557df647" y="388.8"/>
      </g>
     </g>
     <g id="line2d_5">
      <g>
       <use style="stroke:#000000;stroke-linecap:butt;stroke-width:0.5;" x="161.28" xlink:href="#mdad270ee8e" y="43.2"/>
      </g>
     </g>
     <g id="text_2">
      <!-- 200 -->
      <defs>
       <path d="
M19.1875 8.29688
L53.6094 8.29688
L53.6094 0
L7.32812 0
L7.32812 8.29688
Q12.9375 14.1094 22.625 23.8906
Q32.3281 33.6875 34.8125 36.5312
Q39.5469 41.8438 41.4219 45.5312
Q43.3125 49.2188 43.3125 52.7812
Q43.3125 58.5938 39.2344 62.25
Q35.1562 65.9219 28.6094 65.9219
Q23.9688 65.9219 18.8125 64.3125
Q13.6719 62.7031 7.8125 59.4219
L7.8125 69.3906
Q13.7656 71.7812 18.9375 73
Q24.125 74.2188 28.4219 74.2188
Q39.75 74.2188 46.4844 68.5469
Q53.2188 62.8906 53.2188 53.4219
Q53.2188 48.9219 51.5312 44.8906
Q49.8594 40.875 45.4062 35.4062
Q44.1875 33.9844 37.6406 27.2188
Q31.1094 20.4531 19.1875 8.29688" id="BitstreamVeraSans-Roman-32"/>
      </defs>
      <g transform="translate(150.665625 401.70625)scale(0.12 -0.12)">
       <use xlink:href="#BitstreamVeraSans-Roman-32"/>
       <use x="63.623046875" xlink:href="#BitstreamVeraSans-Roman-30"/>
       <use x="127.24609375" xlink:href="#BitstreamVeraSans-Roman-30"/>
      </g>
     </g>
    </g>
    <g id="xtick_3">
     <g id="line2d_6">
      <g>
       <use style="stroke:#000000;stroke-linecap:butt;stroke-width:0.5;" x="250.56" xlink:href="#mcb557df647" y="388.8"/>
      </g>
     </g>
     <g id="line2d_7">
      <g>
       <use style="stroke:#000000;stroke-linecap:butt;stroke-width:0.5;" x="250.56" xlink:href="#mdad270ee8e" y="43.2"/>
      </g>
     </g>
     <g id="text_3">
      <!-- 400 -->
      <defs>
       <path d="
M37.7969 64.3125
L12.8906 25.3906
L37.7969 25.3906
z

M35.2031 72.9062
L47.6094 72.9062
L47.6094 25.3906
L58.0156 25.3906
L58.0156 17.1875
L47.6094 17.1875
L47.6094 0
L37.7969 0
L37.7969 17.1875
L4.89062 17.1875
L4.89062 26.7031
z
" id="BitstreamVeraSans-Roman-34"/>
      </defs>
      <g transform="translate(239.799375 401.70625)scale(0.12 -0.12)">
       <use xlink:href="#BitstreamVeraSans-Roman-34"/>
       <use x="63.623046875" xlink:href="#BitstreamVeraSans-Roman-30"/>
       <use x="127.24609375" xlink:href="#BitstreamVeraSans-Roman-30"/>
      </g>
     </g>
    </g>
    <g id="xtick_4">
     <g id="line2d_8">
      <g>
       <use style="stroke:#000000;stroke-linecap:butt;stroke-width:0.5;" x="339.84" xlink:href="#mcb557df647" y="388.8"/>
      </g>
     </g>
     <g id="line2d_9">
      <g>
       <use style="stroke:#000000;stroke-linecap:butt;stroke-width:0.5;" x="339.84" xlink:href="#mdad270ee8e" y="43.2"/>
      </g>
     </g>
     <g id="text_4">
      <!-- 600 -->
      <defs>
       <path d="
M33.0156 40.375
Q26.375 40.375 22.4844 35.8281
Q18.6094 31.2969 18.6094 23.3906
Q18.6094 15.5312 22.4844 10.9531
Q26.375 6.39062 33.0156 6.39062
Q39.6562 6.39062 43.5312 10.9531
Q47.4062 15.5312 47.4062 23.3906
Q47.4062 31.2969 43.5312 35.8281
Q39.6562 40.375 33.0156 40.375
M52.5938 71.2969
L52.5938 62.3125
Q48.875 64.0625 45.0938 64.9844
Q41.3125 65.9219 37.5938 65.9219
Q27.8281 65.9219 22.6719 59.3281
Q17.5312 52.7344 16.7969 39.4062
Q19.6719 43.6562 24.0156 45.9219
Q28.375 48.1875 33.5938 48.1875
Q44.5781 48.1875 50.9531 41.5156
Q57.3281 34.8594 57.3281 23.3906
Q57.3281 12.1562 50.6875 5.35938
Q44.0469 -1.42188 33.0156 -1.42188
Q20.3594 -1.42188 13.6719 8.26562
Q6.98438 17.9688 6.98438 36.375
Q6.98438 53.6562 15.1875 63.9375
Q23.3906 74.2188 37.2031 74.2188
Q40.9219 74.2188 44.7031 73.4844
Q48.4844 72.75 52.5938 71.2969" id="BitstreamVeraSans-Roman-36"/>
      </defs>
      <g transform="translate(329.205 401.70625)scale(0.12 -0.12)">
       <use xlink:href="#BitstreamVeraSans-Roman-36"/>
       <use x="63.623046875" xlink:href="#BitstreamVeraSans-Roman-30"/>
       <use x="127.24609375" xlink:href="#BitstreamVeraSans-Roman-30"/>
      </g>
     </g>
    </g>
    <g id="xtick_5">
     <g id="line2d_10">
      <g>
       <use style="stroke:#000000;stroke-linecap:butt;stroke-width:0.5;" x="429.12" xlink:href="#mcb557df647" y="388.8"/>
      </g>
     </g>
     <g id="line2d_11">
      <g>
       <use style="stroke:#000000;stroke-linecap:butt;stroke-width:0.5;" x="429.12" xlink:href="#mdad270ee8e" y="43.2"/>
      </g>
     </g>
     <g id="text_5">
      <!-- 800 -->
      <defs>
       <path d="
M31.7812 34.625
Q24.75 34.625 20.7188 30.8594
Q16.7031 27.0938 16.7031 20.5156
Q16.7031 13.9219 20.7188 10.1562
Q24.75 6.39062 31.7812 6.39062
Q38.8125 6.39062 42.8594 10.1719
Q46.9219 13.9688 46.9219 20.5156
Q46.9219 27.0938 42.8906 30.8594
Q38.875 34.625 31.7812 34.625
M21.9219 38.8125
Q15.5781 40.375 12.0312 44.7188
Q8.5 49.0781 8.5 55.3281
Q8.5 64.0625 14.7188 69.1406
Q20.9531 74.2188 31.7812 74.2188
Q42.6719 74.2188 48.875 69.1406
Q55.0781 64.0625 55.0781 55.3281
Q55.0781 49.0781 51.5312 44.7188
Q48 40.375 41.7031 38.8125
Q48.8281 37.1562 52.7969 32.3125
Q56.7812 27.4844 56.7812 20.5156
Q56.7812 9.90625 50.3125 4.23438
Q43.8438 -1.42188 31.7812 -1.42188
Q19.7344 -1.42188 13.25 4.23438
Q6.78125 9.90625 6.78125 20.5156
Q6.78125 27.4844 10.7812 32.3125
Q14.7969 37.1562 21.9219 38.8125
M18.3125 54.3906
Q18.3125 48.7344 21.8438 45.5625
Q25.3906 42.3906 31.7812 42.3906
Q38.1406 42.3906 41.7188 45.5625
Q45.3125 48.7344 45.3125 54.3906
Q45.3125 60.0625 41.7188 63.2344
Q38.1406 66.4062 31.7812 66.4062
Q25.3906 66.4062 21.8438 63.2344
Q18.3125 60.0625 18.3125 54.3906" id="BitstreamVeraSans-Roman-38"/>
      </defs>
      <g transform="translate(418.4728125 401.70625)scale(0.12 -0.12)">
       <use xlink:href="#BitstreamVeraSans-Roman-38"/>
       <use x="63.623046875" xlink:href="#BitstreamVeraSans-Roman-30"/>
       <use x="127.24609375" xlink:href="#BitstreamVeraSans-Roman-30"/>
      </g>
     </g>
    </g>
    <g id="xtick_6">
     <g id="line2d_12">
      <g>
       <use style="stroke:#000000;stroke-linecap:butt;stroke-width:0.5;" x="518.4" xlink:href="#mcb557df647" y="388.8"/>
      </g>
     </g>
     <g id="line2d_13">
      <g>
       <use style="stroke:#000000;stroke-linecap:butt;stroke-width:0.5;" x="518.4" xlink:href="#mdad270ee8e" y="43.2"/>
      </g>
     </g>
     <g id="text_6">
      <!-- 1000 -->
      <defs>
       <path d="
M12.4062 8.29688
L28.5156 8.29688
L28.5156 63.9219
L10.9844 60.4062
L10.9844 69.3906
L28.4219 72.9062
L38.2812 72.9062
L38.2812 8.29688
L54.3906 8.29688
L54.3906 0
L12.4062 0
z
" id="BitstreamVeraSans-Roman-31"/>
      </defs>
      <g transform="translate(504.1875 401.70625)scale(0.12 -0.12)">
       <use xlink:href="#BitstreamVeraSans-Roman-31"/>
       <use x="63.623046875" xlink:href="#BitstreamVeraSans-Roman-30"/>
       <use x="127.24609375" xlink:href="#BitstreamVeraSans-Roman-30"/>
       <use x="190.869140625" xlink:href="#BitstreamVeraSans-Roman-30"/>
      </g>
     </g>
    </g>
   </g>
   <g id="matplotlib.axis_2">
    <g id="ytick_1">
     <g id="line2d_14">
      <defs>
       <path d="
M0 0
L4 0" id="mc8fcea1516" style="stroke:#000000;stroke-linecap:butt;stroke-width:0.5;"/>
      </defs>
      <g>
       <use style="stroke:#000000;stroke-linecap:butt;stroke-width:0.5;" x="72.0" xlink:href="#mc8fcea1516" y="216.0"/>
      </g>
     </g>
     <g id="line2d_15">
      <defs>
       <path d="
M0 0
L-4 0" id="m0d5b0a6425" style="stroke:#000000;stroke-linecap:butt;stroke-width:0.5;"/>
      </defs>
      <g>
       <use style="stroke:#000000;stroke-linecap:butt;stroke-width:0.5;" x="518.4" xlink:href="#m0d5b0a6425" y="216.0"/>
      </g>
     </g>
     <g id="text_7">
      <!-- 0 -->
      <g transform="translate(61.953125 220.3678125)scale(0.12 -0.12)">
       <use xlink:href="#BitstreamVeraSans-Roman-30"/>
      </g>
     </g>
    </g>
   </g>
   <g id="patch_3">
    <path d="
M72 43.2
L518.4 43.2" style="fill:none;stroke:#000000;"/>
   </g>
   <g id="patch_4">
    <path d="
M518.4 388.8
L518.4 43.2" style="fill:none;stroke:#000000;"/>
   </g>
   <g id="patch_5">
    <path d="
M72 388.8
L518.4 388.8" style="fill:none;stroke:#000000;"/>
   </g>
   <g id="patch_6">
    <path d="
M72 388.8
L72 43.2" style="fill:none;stroke:#000000;"/>
   </g>
  </g>
 </g>
 <defs>
  <clipPath id="p7ff5b81e1d">
   <rect height="345.6" width="446.4" x="72.0" y="43.2"/>
  </clipPath>
 </defs>
</svg>
